<svg width="512" height="512" viewBox="0 0 512 512" fill="none" xmlns="http://www.w3.org/2000/svg">
<g clip-path="url(#clip0_510_49)">
<mask id="mask0_510_49" style="mask-type:luminance" maskUnits="userSpaceOnUse" x="0" y="0" width="512" height="512">
<path d="M512 0H0V512H512V0Z" fill="white"/>
</mask>
<g mask="url(#mask0_510_49)">
<path d="M512 0H0V512H512V0Z" fill="white"/>
<mask id="mask1_510_49" style="mask-type:luminance" maskUnits="userSpaceOnUse" x="12" y="42" width="488" height="426">
<path d="M499.28 42.9316H12.7207V467.478H499.28V42.9316Z" fill="white"/>
</mask>
<g mask="url(#mask1_510_49)">
<mask id="mask2_510_49" style="mask-type:alpha" maskUnits="userSpaceOnUse" x="0" y="0" width="512" height="512">
<path d="M0 0H512V512H0V0Z" fill="#0540F2"/>
</mask>
<g mask="url(#mask2_510_49)">
<mask id="mask3_510_49" style="mask-type:alpha" maskUnits="userSpaceOnUse" x="28" y="77" width="456" height="366">
<path d="M143.827 180.401C170.903 180.401 197.979 180.355 225.056 180.415C238.535 180.445 240.443 182.8 238.236 195.638C235.507 211.532 232.823 227.425 230.2 243.35C229.901 245.169 228.231 247.509 230.394 248.791C232.346 249.955 234.076 247.822 235.641 246.794C255.412 233.866 276.405 223.37 300.156 221.297C335.805 218.182 371.529 219.672 405.167 232.838C423.699 240.084 441.74 249.492 457.529 262.284C466.774 269.77 472.365 279.565 475.511 290.792C479.954 306.582 484.009 322.476 483.936 339.055C483.936 341.277 484.083 343.662 483.384 345.691C481.922 349.909 480.134 354.74 474.677 354.517C469.458 354.307 469.383 349.373 468.593 345.572C467.356 339.682 465.745 334.001 461.764 329.259C454.682 320.806 445.528 320.477 438.088 328.693C430.931 336.596 428.217 346.316 427.307 356.678C427.158 358.408 427.113 360.152 427.129 361.897C427.188 383.83 430.826 380.744 407.477 387.319C390.033 392.238 372.469 396.741 355.055 401.766C348.912 403.54 346.153 401.616 345.482 395.534C344.826 389.629 344.931 383.606 342.887 377.896C342.216 376.032 341.65 374.108 340.785 372.32C336.805 364.134 331.393 357.201 321.522 356.828C312.218 356.47 306.583 362.792 302.244 370.052C295.624 381.16 294.446 393.477 295.683 406.03C296.831 417.749 296.385 419.166 284.949 420.85C240.115 427.455 195.371 426.933 150.865 418.093C140.219 415.975 129.037 414.006 124.102 401.93C123.162 399.619 120.807 400.454 118.824 400.484C108.059 400.648 97.5921 398.769 87.3788 395.43C83.0996 394.027 80.1774 391.597 79.4169 386.662C69.4869 322.118 59.408 257.603 49.4631 193.073C47.9125 183.024 49.97 180.564 60.3622 180.504C88.1838 180.34 116.006 180.445 143.827 180.445V180.401ZM144.036 227.947C144.036 228.037 144.036 228.126 144.036 228.215C120.687 228.215 97.3386 228.29 73.9898 228.157C69.0546 228.126 66.684 229.111 67.6084 234.881C72.6478 266.251 77.4638 297.666 82.2349 329.065C82.9207 333.538 84.9336 335.537 89.5705 335.476C101.498 335.312 113.411 335.403 125.339 335.417C128.232 335.417 130.394 334.613 132.153 331.913C142.963 315.319 158.722 304.554 176.166 296.308C182.713 293.208 188.035 289.361 192.463 283.888C197.651 277.507 203.302 271.573 209.877 266.609C213.724 263.701 215.528 259.885 216.229 255.277C217.198 248.896 218.107 242.499 219.465 236.207C220.761 230.184 219.286 227.724 212.576 227.827C189.734 228.157 166.879 227.963 144.021 227.963L144.036 227.947ZM263.836 298.948C263.836 299.037 263.836 299.142 263.836 299.231C279.983 299.231 296.13 299.231 312.293 299.231C315.499 299.231 318.152 299.38 319.658 294.982C325.295 278.433 336.163 265.162 347.809 252.489C349.09 251.087 351.938 250.416 351.297 248.136C350.507 245.288 347.554 246.331 345.513 246.317C322.403 246.242 299.291 246.256 276.181 246.317C274.213 246.317 272.127 246.406 270.322 247.062C247.062 255.665 227.621 270.067 210.101 287.273C207.955 289.391 204.838 292.268 206.18 295.609C207.7 299.366 212.07 298.859 215.395 298.889C231.542 299.053 247.689 298.964 263.836 298.964V298.948ZM367.147 297.442C389.347 289.808 411.548 282.13 433.779 274.57C439.384 272.662 437.297 270.633 434.195 268.234C418.675 256.186 401.305 252.31 382.385 257.484C370.799 260.645 360.884 266.906 352.878 277.523C360.854 277.925 369.532 270.098 374.243 280.28C377.568 287.467 371.664 292.104 367.147 297.456V297.442ZM255.8 369.411C255.8 369.591 255.8 369.755 255.814 369.933C260.481 369.591 265.238 369.68 269.815 368.815C277.836 367.324 282.429 361.242 282.295 353.652C282.22 349.163 279.999 347.122 275.793 347.777C265.253 349.432 254.89 351.847 245.975 358.111C243.036 360.168 238.474 362.658 239.398 366.266C240.427 370.321 245.587 369.054 249.136 369.352C251.341 369.546 253.578 369.383 255.8 369.383V369.411ZM195.072 399.068C200.738 399.619 207.359 398.859 213.918 397.517C215.633 397.174 217.855 396.83 217.765 394.789C217.661 392.521 215.454 392.582 213.724 392.954C198.904 396.19 184.277 394.937 169.725 391.225C168.16 390.822 165.834 390.33 165.238 392.462C164.597 394.744 167.101 395.175 168.532 395.668C176.793 398.53 185.35 399.44 195.102 399.068H195.072ZM139.518 366.579C143.186 366.042 147.823 366.699 148.613 361.391C149.091 358.23 140.398 349.493 137.088 350.028C131.87 350.879 132.63 355.546 132.227 359.318C131.661 364.716 133.942 367.235 139.518 366.579Z" fill="#0540F2"/>
<path d="M256.529 93.0731C231.883 123.832 212.218 111.932 212.575 111.663C215.662 109.501 207.059 112.65 211.427 116.273C215.215 119.419 253.456 95.6636 251.427 98.929C240.484 133.863 252.295 106.82 252.265 107.744C251.968 120.119 254.055 100.125 242.604 100.811C237.072 101.139 228.664 108.639 227.574 114.081C227.277 115.527 225.204 117.331 228.916 117.033C236.506 116.407 236.878 125.159 239.265 130.348C241.336 134.85 243.036 139.532 244.855 144.154C245.795 146.54 247.151 148.359 249.567 149.611C256.768 153.383 258.93 159.825 256.529 168.979C254.621 176.225 248.776 175.704 243.349 175.718C176.047 175.793 108.744 175.807 41.4408 175.823C35.4769 175.823 29.8112 175.688 28.9166 167.623C27.694 156.455 30.1392 151.042 38.6079 148.97C42.0222 148.135 43.6474 146.256 44.8104 143.334C47.0917 137.564 49.8053 131.928 51.6989 126.039C54.0396 118.718 58.7214 116.124 66.2209 116.183C94.2812 116.422 122.342 116.273 150.402 116.273C166.042 116.273 181.712 116.988 197.338 116.377C207.327 115.975 208.371 112.635 211.427 107.744C214.051 103.54 215.825 101.318 218.867 97.3969C222.341 92.8942 223.34 84.3955 223.176 82.3379C222.297 71.5284 211.993 83.7693 223.176 81.8906C190.927 132.217 213.637 110.756 214.695 109.772C217.037 107.61 213.986 104.792 216.461 107.744C217.49 108.982 219.235 110.368 217.117 112.784C215.879 114.2 226.129 96.7819 225.056 98.929L256.529 93.0731Z" fill="#0540F2"/>
<path d="M342.172 402.154C341.754 412.441 340.397 422.505 335.104 431.556C328.216 443.349 316.572 443.662 308.878 432.421C299.186 418.226 298.933 385.469 308.416 370.858C315.513 359.914 327.337 359.764 334.33 370.783C340.383 380.325 341.784 391.151 342.158 402.154H342.172Z" fill="#0540F2"/>
<path d="M431.303 364.089C430.811 354.8 432.436 345.616 436.954 337.057C439.891 331.496 443.947 327.217 450.716 327.232C457.365 327.232 461.137 331.854 463.449 337.192C471.305 355.307 470.723 373.393 461.883 391.046C459.304 396.19 455.114 399.769 448.956 399.559C442.827 399.351 439.115 395.46 436.416 390.375C432.093 382.234 430.975 373.468 431.317 364.104L431.303 364.089Z" fill="#0540F2"/>
<path d="M168.801 442.023C162.747 441.738 157.857 439.339 154.591 434.105C153.235 431.928 152.653 429.543 154.07 427.127C155.561 424.578 158.065 424.385 160.555 424.726C165.67 425.443 170.753 426.367 175.838 427.202C178.312 427.604 180.817 428.023 181.667 430.915C182.563 433.971 180.952 436.148 178.878 438.027C176.047 440.59 172.647 441.904 168.801 442.037V442.023Z" fill="#0540F2"/>
<path d="M163.655 265.132C165.147 265.132 166.638 265.132 168.114 265.132C171.693 265.162 175.226 265.356 176.657 269.501C178.029 273.467 175.853 276.196 173.124 278.552C158.303 291.344 143.468 304.092 128.588 316.81C125.949 319.076 122.848 320.18 119.866 317.555C117.093 315.125 116.824 311.875 118.554 308.744C121.059 304.181 123.862 299.798 126.501 295.31C128.812 291.374 127.843 289.511 123.072 289.256C118.673 289.018 112.799 291.239 110.875 285.082C109.071 279.282 114.26 276.285 117.585 272.782C126.62 263.254 135.73 253.787 144.825 244.304C145.854 243.23 146.823 242.066 147.986 241.157C151.415 238.489 154.904 234.135 159.57 237.654C163.91 240.918 161.106 245.317 159.392 249.149C158.587 250.953 157.662 252.712 156.783 254.486C151.594 265.013 151.758 265.267 163.655 265.132Z" fill="#0540F2"/>
</mask>
<g mask="url(#mask3_510_49)">
<path d="M22.6543 117.674H496.786V450.163H22.6543V117.674Z" fill="#0540F2"/>
</g>
<path fill-rule="evenodd" clip-rule="evenodd" d="M244.459 74.3599C244.364 74.7037 244.28 75.0599 244.211 75.4284C243.904 76.0139 243.574 76.5892 243.221 77.1543C243.049 77.2435 242.939 77.3806 242.891 77.5655C242.72 77.6545 242.61 77.7914 242.562 77.9764C242.391 78.0656 242.281 78.2023 242.233 78.3872C241.548 79.1384 240.874 79.9057 240.212 80.6885C240.263 81.6903 240.772 82.3478 241.737 82.6612C242.017 82.8854 242.319 82.9401 242.643 82.8254C243.066 82.6566 243.451 82.4235 243.798 82.1269C244.699 81.0636 245.661 80.0498 246.684 79.0859C247.251 78.6257 247.856 78.2284 248.498 77.8942C248.624 77.9002 248.705 77.8453 248.744 77.7297C250.46 77.2247 251.875 77.6631 252.99 79.0447C253.623 79.8134 253.869 80.6901 253.731 81.6748C253.402 82.7442 252.88 83.7031 252.166 84.5516C251.045 85.6677 249.988 86.8321 248.991 88.0446C249.131 88.3102 249.284 88.5705 249.446 88.8255C250.08 89.4315 250.74 90.0068 251.424 90.5514C251.568 90.7595 251.692 90.9788 251.794 91.209C251.869 91.6423 251.896 92.0805 251.877 92.524C251.801 92.6118 251.772 92.7213 251.794 92.8528C251.677 93.0183 251.622 93.2101 251.63 93.4281C251.419 93.8236 251.227 94.2344 251.053 94.6609C250.874 94.9086 250.735 95.1827 250.64 95.4828C249.061 98.4001 246.781 100.592 243.798 102.058C243.461 102.131 243.159 102.268 242.891 102.469C242.594 102.537 242.317 102.646 242.068 102.798C241.499 102.959 240.95 103.151 240.419 103.373C240.177 103.379 239.958 103.433 239.759 103.537C238.333 103.607 236.903 103.634 235.472 103.62C235.243 103.539 234.995 103.512 234.731 103.537C234.103 103.37 233.472 103.343 232.834 103.455C232.658 103.445 232.494 103.486 232.341 103.579C231.394 104.579 230.444 105.578 229.497 106.578C229.381 106.735 229.284 106.899 229.209 107.072C229.093 107.111 229.037 107.193 229.044 107.318C228.929 107.433 228.846 107.57 228.796 107.729C228.679 107.768 228.625 107.85 228.632 107.976C228.179 108.549 227.767 109.152 227.395 109.784C227.28 109.823 227.225 109.905 227.231 110.031C227.113 110.069 227.059 110.152 227.066 110.277C226.948 110.316 226.895 110.398 226.9 110.524C226.722 110.714 226.585 110.934 226.488 111.181C226.372 111.22 226.318 111.302 226.323 111.428C226.207 111.467 226.153 111.549 226.158 111.674C226.042 111.713 225.988 111.795 225.992 111.921C225.22 112.891 224.504 113.904 223.85 114.962C223.734 115.001 223.679 115.083 223.685 115.209C223.572 115.323 223.488 115.46 223.439 115.619C223.294 115.715 223.211 115.852 223.191 116.03C222.873 116.555 222.597 117.103 222.367 117.674C216.926 117.674 211.486 117.674 206.045 117.674C206.482 117.307 206.88 116.896 207.241 116.441C210.244 112.295 213.186 108.103 216.059 103.866C217.97 101.387 219.783 98.8389 221.5 96.2225C221.567 96.0635 221.61 95.8991 221.624 95.7294C221.728 95.2255 221.782 94.7051 221.79 94.1678C221.79 94.0582 221.79 93.9487 221.79 93.839C221.845 93.5803 221.872 93.3063 221.872 93.0171C221.879 92.5321 221.825 92.0664 221.707 91.6199C221.693 91.165 221.637 90.7268 221.542 90.3048C221.421 88.2763 221.437 86.2491 221.585 84.2228C221.65 83.0868 221.882 81.991 222.284 80.9352C222.4 80.8964 222.454 80.8141 222.448 80.6885C222.435 80.607 222.462 80.5523 222.531 80.5241C222.647 80.4853 222.702 80.4031 222.696 80.2777C222.682 80.1961 222.71 80.1414 222.779 80.1133C222.895 80.0745 222.95 79.9921 222.944 79.8666C223.102 79.5575 223.28 79.256 223.478 78.9627C225.056 76.8822 226.911 75.1014 229.044 73.6202C229.169 73.6263 229.252 73.5714 229.292 73.4558C229.664 73.3095 230.049 73.2685 230.444 73.3326C231.316 73.9419 232.195 74.531 233.082 75.0996C233.324 75.3289 233.572 75.3564 233.825 75.1818C234.332 74.9382 234.785 74.6094 235.184 74.1955C235.76 73.4162 236.379 72.6765 237.04 71.9764C237.363 71.7902 237.639 71.5436 237.864 71.2367C238.531 70.5336 239.357 70.1091 240.336 69.9628C243.221 70.0044 244.596 71.4701 244.459 74.3599Z" fill="#0540F2"/>
</g>
</g>
</g>
</g>
<defs>
<clipPath id="clip0_510_49">
<rect width="512" height="512" rx="100" fill="white"/>
</clipPath>
</defs>
</svg>
